<?xml version="1.0" encoding="UTF-8" standalone="no"?>
<!-- Created with Inkscape (http://www.inkscape.org/) -->
<!-- puffy :D-->

<svg
   width="160"
   height="178"
   viewBox="0 0 370.62708 411.20337"
   version="1.1"
   id="svg1"
   xml:space="preserve"
   inkscape:export-filename="Thumbnail ultimo.png"
   inkscape:export-xdpi="96"
   inkscape:export-ydpi="96"
   inkscape:version="1.3 (0e150ed6c4, 2023-07-21)"
   sodipodi:docname="ultimo.svg"
   xmlns:inkscape="http://www.inkscape.org/namespaces/inkscape"
   xmlns:sodipodi="http://sodipodi.sourceforge.net/DTD/sodipodi-0.dtd"
   xmlns="http://www.w3.org/2000/svg"
   xmlns:svg="http://www.w3.org/2000/svg"><sodipodi:namedview
     id="namedview1"
     pagecolor="#ffffff"
     bordercolor="#000000"
     borderopacity="0.25"
     inkscape:showpageshadow="2"
     inkscape:pageopacity="0.0"
     inkscape:pagecheckerboard="0"
     inkscape:deskcolor="#d1d1d1"
     inkscape:document-units="px"
     showguides="true"
     inkscape:zoom="0.37123106"
     inkscape:cx="266.68027"
     inkscape:cy="354.22683"
     inkscape:window-width="1366"
     inkscape:window-height="715"
     inkscape:window-x="-8"
     inkscape:window-y="-8"
     inkscape:window-maximized="1"
     inkscape:current-layer="layer1"><sodipodi:guide
       position="582.03058,880.95643"
       orientation="0,-1"
       id="guide4"
       inkscape:locked="false" /></sodipodi:namedview><defs
     id="defs1" /><g
     inkscape:label="Camada 1"
     inkscape:groupmode="layer"
     id="layer1"
     transform="translate(-237.96942,-146.67072)"><path
       d="m 347.62653,527.19575 c 0.0919,-2.91652 0.14107,-5.6825 0.27402,-8.71628 0.28061,-6.40072 0.65627,-13.03887 1.15617,-19.81624 0.49989,-6.77737 1.12341,-13.69272 1.89189,-20.64957 0.76851,-6.95686 1.68394,-13.95441 2.7703,-20.89359 1.08638,-6.93916 2.34529,-13.82018 3.79883,-20.54447 1.45356,-6.72428 3.09999,-13.29378 4.97002,-19.60602 0.93502,-3.15611 1.92838,-6.2482 2.97676,-9.26433 1.04838,-3.01614 2.1542,-5.95488 3.32209,-8.80638 1.1679,-2.85151 2.39638,-5.61489 3.68999,-8.27712 1.29358,-2.66222 2.65118,-5.22442 4.0766,-7.67273 1.42544,-2.4483 2.91858,-4.78358 4.48202,-6.9933 1.56344,-2.20972 3.19858,-4.2923 4.90621,-6.2388 1.7076,-1.9465 3.48743,-3.75808 5.34539,-5.41672 1.85794,-1.65863 3.79265,-3.16593 5.80709,-4.51203 2.01444,-1.34613 4.1105,-2.53087 6.28759,-3.53983 2.17711,-1.00896 4.43718,-1.84162 6.7831,-2.48875 2.34592,-0.64716 4.606,-1.46009 6.7831,-2.42495 2.17709,-0.96489 4.26939,-2.08383 6.28383,-3.34464 2.01444,-1.26079 3.94916,-2.66179 5.8071,-4.19672 1.85796,-1.53493 3.63778,-3.20153 5.34539,-4.98878 1.70762,-1.78725 3.34277,-3.6955 4.90621,-5.71328 1.56344,-2.01776 3.05657,-4.14369 4.48202,-6.37016 1.42544,-2.22647 2.78303,-4.55365 4.0766,-6.96703 1.2936,-2.41338 2.52209,-4.91407 3.68999,-7.49256 1.16791,-2.57849 2.27746,-5.23625 3.32584,-7.95802 1.04837,-2.72179 2.03798,-5.50889 2.97301,-8.35218 1.87002,-5.68658 3.5202,-11.59354 4.97376,-17.63529 1.45356,-6.04175 2.7087,-12.21609 3.79508,-18.43859 1.08638,-6.22249 2.00179,-12.49507 2.7703,-18.72389 0.76849,-6.22882 1.39201,-12.41542 1.8919,-18.47614 0.4999,-6.0607 0.87556,-11.99219 1.15616,-17.71036 0.28061,-5.71817 0.46375,-11.2216 0.57433,-16.4228 0.11051,-5.20123 0.14896,-10.10368 0.13896,-14.6135 -0.0202,-9.01964 -0.2319,-16.48184 -0.4392,-21.68939 -0.14165,-3.55629 -0.20373,-4.33979 -0.27778,-5.5706 H 241.9049 v 380.52504 z"
       style="fill:#00006b;fill-opacity:1;fill-rule:evenodd;stroke-width:8.49161;stroke-linecap:round;stroke-linejoin:round"
       id="path2-6" /><path
       d="M 347.62653,527.19575 H 557.71468 V 146.67071 h -85.29354 c 0.074,1.23081 0.13627,2.01431 0.27778,5.5706 0.2073,5.20755 0.41896,12.66975 0.4392,21.68939 0.01,4.50982 -0.0282,9.41227 -0.13896,14.6135 -0.11051,5.2012 -0.29372,10.70463 -0.57433,16.4228 -0.2806,5.71817 -0.65626,11.64966 -1.15616,17.71036 -0.49989,6.06072 -1.12341,12.24732 -1.8919,18.47614 -0.7685,6.22882 -1.68392,12.5014 -2.7703,18.72389 -1.08637,6.2225 -2.34152,12.39684 -3.79508,18.43859 -1.45356,6.04175 -3.10374,11.94871 -4.97376,17.63529 -0.93503,2.84329 -1.92463,5.63039 -2.97301,8.35218 -1.04838,2.72177 -2.15793,5.37953 -3.32584,7.95802 -1.1679,2.57849 -2.39639,5.07918 -3.68998,7.49256 -1.29358,2.41338 -2.65117,4.74056 -4.07661,6.96703 -1.42544,2.22647 -2.91858,4.3524 -4.48202,6.37016 -1.56344,2.01778 -3.19858,3.92603 -4.9062,5.71328 -1.70761,1.78725 -3.48744,3.45385 -5.3454,4.98878 -1.85793,1.53493 -3.79266,2.93593 -5.8071,4.19672 -2.01444,1.26081 -4.10673,2.37975 -6.28383,3.34464 -2.1771,0.96486 -4.43718,1.77779 -6.7831,2.42495 -2.34592,0.64713 -4.60598,1.47979 -6.78309,2.48875 -2.1771,1.00896 -4.27315,2.1937 -6.28759,3.53983 -2.01444,1.3461 -3.94916,2.8534 -5.8071,4.51203 -1.85795,1.65864 -3.63779,3.47022 -5.34539,5.41672 -1.70763,1.9465 -3.34277,4.02908 -4.90621,6.2388 -1.56344,2.20972 -3.05658,4.545 -4.48202,6.9933 -1.42542,2.44831 -2.78302,5.01051 -4.0766,7.67273 -1.2936,2.66223 -2.52208,5.42561 -3.68999,8.27712 -1.16789,2.8515 -2.27371,5.79024 -3.32209,8.80638 -1.04838,3.01613 -2.04174,6.10822 -2.97676,9.26433 -1.87002,6.31224 -3.51646,12.88174 -4.97002,19.60602 -1.45353,6.72429 -2.71245,13.60531 -3.79882,20.54447 -1.08637,6.93918 -2.0018,13.93673 -2.7703,20.89359 -0.76849,6.95685 -1.392,13.8722 -1.8919,20.64957 -0.4999,6.77737 -0.87556,13.41552 -1.15617,19.81624 -0.13299,3.03378 -0.18219,5.79976 -0.27402,8.71628 z"
       style="fill:#400040;fill-opacity:1;fill-rule:evenodd;stroke-width:8.49161;stroke-linecap:round;stroke-linejoin:round"
       id="path3-8" /><path
       id="rect4"
       style="fill:#e6e6e6;fill-rule:evenodd;stroke-width:8.94221;stroke-linecap:round;stroke-linejoin:round"
       d="m 257.73802,157.92779 h 291.47264 l 49.9704,24.52761 -293.92705,33.95674 z"
       sodipodi:nodetypes="ccccc" /><path
       d="m 398.50837,557.11259 c 0.0919,-2.91652 0.14107,-5.6825 0.27403,-8.71628 0.2806,-6.40073 0.65626,-13.03887 1.15616,-19.81625 0.49989,-6.77736 1.12341,-13.69271 1.8919,-20.64957 0.7685,-6.95686 1.68392,-13.95441 2.7703,-20.89359 1.08637,-6.93915 2.34528,-13.82017 3.79883,-20.54446 1.45356,-6.72428 3.09999,-13.29378 4.97001,-19.60602 0.93503,-3.15611 1.92838,-6.2482 2.97676,-9.26434 1.04838,-3.01614 2.1542,-5.95488 3.32209,-8.80638 1.1679,-2.8515 2.39639,-5.61489 3.68998,-8.27712 1.29358,-2.66221 2.65118,-5.22442 4.07661,-7.67272 1.42545,-2.4483 2.91858,-4.78359 4.48202,-6.9933 1.56344,-2.20973 3.19859,-4.2923 4.9062,-6.23881 1.70761,-1.9465 3.48744,-3.75808 5.3454,-5.41671 1.85794,-1.65864 3.79266,-3.16593 5.8071,-4.51204 2.01444,-1.34613 4.11049,-2.53087 6.28758,-3.53983 2.17712,-1.00896 4.43718,-1.84162 6.7831,-2.48875 2.34591,-0.64716 4.606,-1.46008 6.78309,-2.42495 2.1771,-0.96489 4.2694,-2.08382 6.28385,-3.34464 2.01444,-1.26079 3.94915,-2.66178 5.80709,-4.19672 1.85795,-1.53492 3.63779,-3.20153 5.34539,-4.98878 1.70763,-1.78724 3.34277,-3.6955 4.90621,-5.71326 1.56344,-2.01778 3.05658,-4.14371 4.48202,-6.37018 1.42545,-2.22647 2.78302,-4.55364 4.0766,-6.96702 1.29361,-2.41338 2.52208,-4.91407 3.68999,-7.49256 1.1679,-2.57849 2.27746,-5.23624 3.32584,-7.95802 1.04838,-2.72179 2.03799,-5.50889 2.97301,-8.35219 1.87003,-5.68657 3.5202,-11.59354 4.97377,-17.63528 1.45356,-6.04175 2.7087,-12.21609 3.79507,-18.4386 1.08637,-6.22249 2.0018,-12.49506 2.7703,-18.72389 0.76849,-6.22881 1.392,-12.41541 1.8919,-18.47613 0.4999,-6.0607 0.87556,-11.99219 1.15617,-17.71035 0.28059,-5.71817 0.46373,-11.22161 0.57433,-16.42282 0.11051,-5.20123 0.14895,-10.10367 0.13895,-14.6135 -0.0202,-9.01963 -0.2319,-16.48183 -0.4392,-21.68938 -0.14165,-3.5563 -0.20372,-4.33979 -0.27778,-5.57061 h -230.5163 l 8.69448,380.98266 z"
       style="fill:#0000ff;fill-rule:evenodd;stroke-width:8.49161;stroke-linecap:round;stroke-linejoin:round"
       id="path2"
       sodipodi:nodetypes="csssssssssssssssssssssssssssssssssscccc" /><path
       d="M 398.50837,557.11259 H 608.59652 V 176.58754 h -85.29353 c 0.074,1.23082 0.13626,2.01431 0.27777,5.57061 0.2073,5.20755 0.41897,12.66975 0.4392,21.68938 0.01,4.50983 -0.0282,9.41227 -0.13895,14.6135 -0.11051,5.20121 -0.29373,10.70465 -0.57433,16.42282 -0.28061,5.71816 -0.65627,11.64965 -1.15617,17.71035 -0.49989,6.06072 -1.12341,12.24732 -1.89189,18.47613 -0.76851,6.22883 -1.68393,12.5014 -2.7703,18.72389 -1.08638,6.22251 -2.34152,12.39685 -3.79508,18.4386 -1.45356,6.04174 -3.10374,11.94871 -4.97377,17.63528 -0.93502,2.8433 -1.92463,5.6304 -2.97301,8.35219 -1.04838,2.72178 -2.15794,5.37953 -3.32584,7.95802 -1.1679,2.57849 -2.39638,5.07918 -3.68999,7.49256 -1.29358,2.41338 -2.65115,4.74055 -4.0766,6.96702 -1.42544,2.22647 -2.91858,4.3524 -4.48202,6.37018 -1.56344,2.01776 -3.19858,3.92602 -4.90621,5.71326 -1.7076,1.78725 -3.48743,3.45386 -5.34539,4.98878 -1.85794,1.53494 -3.79265,2.93593 -5.80709,4.19672 -2.01445,1.26082 -4.10675,2.37975 -6.28385,3.34464 -2.17709,0.96487 -4.43717,1.77779 -6.78309,2.42495 -2.34592,0.64713 -4.60598,1.47979 -6.7831,2.48875 -2.17709,1.00896 -4.27314,2.1937 -6.28758,3.53983 -2.01444,1.34611 -3.94916,2.8534 -5.8071,4.51204 -1.85796,1.65863 -3.63778,3.47021 -5.34539,5.41671 -1.70762,1.94651 -3.34277,4.02908 -4.90621,6.23881 -1.56343,2.20971 -3.05657,4.545 -4.48202,6.9933 -1.42542,2.4483 -2.78302,5.01051 -4.0766,7.67272 -1.2936,2.66223 -2.52209,5.42562 -3.68999,8.27712 -1.16788,2.8515 -2.27371,5.79024 -3.32209,8.80638 -1.04838,3.01614 -2.04173,6.10823 -2.97676,9.26434 -1.87002,6.31224 -3.51645,12.88174 -4.97001,19.60602 -1.45355,6.72429 -2.71245,13.60531 -3.79883,20.54446 -1.08638,6.93918 -2.00179,13.93673 -2.7703,20.89359 -0.76849,6.95686 -1.39201,13.87221 -1.8919,20.64957 -0.49989,6.77738 -0.87556,13.41552 -1.15616,19.81625 -0.133,3.03378 -0.1822,5.79976 -0.27403,8.71628 z"
       style="fill:#800080;fill-rule:evenodd;stroke-width:8.49161;stroke-linecap:round;stroke-linejoin:round"
       id="path3" /><path
       id="rect3"
       style="fill:#0000b9;fill-opacity:1;fill-rule:evenodd;stroke-width:8.49161;stroke-linecap:round;stroke-linejoin:round"
       d="m 237.96942,146.76221 33.84409,16.24515 30.22054,14.50587 v 380.36083 l -35.55738,-19.20097 -28.50725,-15.39392 z"
       sodipodi:nodetypes="ccccccc" /></g></svg>
