<svg version="1.1" xmlns="http://www.w3.org/2000/svg" xmlns:xlink="http://www.w3.org/1999/xlink" width="135.81255" height="138.39953" viewBox="0,0,135.81255,138.39953"><g transform="translate(-172.85395,-113.13488)"><g data-paper-data="{&quot;isPaintingLayer&quot;:true}" stroke-miterlimit="10" stroke-dasharray="" stroke-dashoffset="0" style="mix-blend-mode: normal"><path d="M240.45395,122.08442c1.76666,2.5 3.26666,5.01666 4.5,7.55c3.13333,-3.16666 6.73334,-5.93333 10.8,-8.3c8.2,-4.73333 14.73333,-5.03334 19.6,-0.9c2.66667,2.26667 2.06667,6.2 -1.8,11.8c3.63333,1.26666 7.28333,2.91666 10.95,4.95c7.3,4.03333 10.98334,7.98333 11.05,11.85c0.1,3.5 -2,5.61666 -6.3,6.35c-2.16667,0.36667 -4.33333,0.38334 -6.5,0.05l3.9,2.85c3.1,2.43333 5.95,4.91667 8.55,7.45c8.23334,8.13333 12.21666,15.36666 11.95,21.7c-0.13333,3.76666 -2.21666,5.26666 -6.25,4.5c-2,-0.4 -3.98334,-1.16667 -5.95,-2.3l2.15,3.2c1.66667,2.66666 3.1,5.31667 4.3,7.95c3.76666,8.4 4.35,15.01666 1.75,19.85c-2.9,5.43334 -6.66667,7.46667 -11.3,6.1c-2.33333,-0.7 -4.36666,-1.93334 -6.1,-3.7l0.05,2.1c-0.03334,1.73334 -0.2,3.38334 -0.5,4.95c-1.03334,4.96667 -3.35,8.15 -6.95,9.55c-3.13333,1.26666 -5.88333,0.51666 -8.25,-2.25l-2.55,-4.55l-0.7,2.45c-0.7,2 -1.56666,3.85 -2.6,5.55c-3.36667,5.46667 -7.93333,8.53333 -13.7,9.2c-5.86667,0.66666 -10.55,-1.23333 -14.05,-5.7c-1.1,-1.4 -2.03334,-2.96667 -2.8,-4.7l-0.75,-2.2l-0.65,2.55c-0.66666,1.93333 -1.48333,3.55 -2.45,4.85c-1.5,1.96667 -3.56667,3.08334 -6.2,3.35c-2.4,0.26666 -4.63333,-0.2 -6.7,-1.4c-6.46667,-3.73334 -10.16666,-10.15 -11.1,-19.25c-0.23334,-2.13333 -0.15,-4.21667 0.25,-6.25l0.65,-2.45l-1.95,1.75c-1.63333,1.33334 -3.26667,2.4 -4.9,3.2c-5.26666,2.5 -9.65,1.78333 -13.15,-2.15c-4.03333,-4.5 -5.63334,-10.76666 -4.8,-18.8c0.23334,-2.13333 0.8,-4.6 1.7,-7.4l1.1,-3l-3.55,1.9c-2.73334,0.73334 -5.01666,-0.23334 -6.85,-2.9c-1.13333,-1.63333 -1.45,-4.4 -0.95,-8.3c0.5,-4.03333 1.81667,-8.4 3.95,-13.1c5.26666,-11.76666 13.2,-21.1 23.8,-28c-6.23334,0.66666 -8.8,-0.83334 -7.7,-4.5c1.03333,-3.56667 4.4,-6.66666 10.1,-9.3c4.5,-2.06667 10.18334,-1.95 17.05,0.35c2.13333,0.7 4.26667,1.58334 6.4,2.65l2.5,1.4c-1.16666,-2.73334 -1.88334,-5.68333 -2.15,-8.85c-0.5,-6 0.76666,-9.05 3.8,-9.15c2.66666,-0.06667 5.76667,2.41667 9.3,7.45" fill="#ffccff" fill-rule="evenodd" stroke="none" stroke-width="1" stroke-linecap="butt" stroke-linejoin="miter"/><path d="M244.95395,129.63441c3.13333,-3.16666 6.73334,-5.93333 10.8,-8.3c8.2,-4.73333 14.73333,-5.03334 19.6,-0.9c2.66667,2.26667 2.06667,6.2 -1.8,11.8c3.63333,1.26666 7.28333,2.91666 10.95,4.95c7.3,4.03333 10.98334,7.98333 11.05,11.85c0.1,3.5 -2,5.61666 -6.3,6.35c-2.16667,0.36667 -4.33333,0.38334 -6.5,0.05l3.9,2.85c3.1,2.43333 5.95,4.91667 8.55,7.45c8.23334,8.13333 12.21666,15.36666 11.95,21.7c-0.13333,3.76666 -2.21666,5.26666 -6.25,4.5c-2,-0.4 -3.98334,-1.16667 -5.95,-2.3l2.15,3.2c1.66667,2.66666 3.1,5.31667 4.3,7.95c3.76666,8.4 4.35,15.01666 1.75,19.85c-2.9,5.43334 -6.66667,7.46667 -11.3,6.1c-2.33333,-0.7 -4.36666,-1.93334 -6.1,-3.7l0.05,2.1c-0.03334,1.73334 -0.2,3.38334 -0.5,4.95c-1.03334,4.96667 -3.35,8.15 -6.95,9.55c-3.13333,1.26666 -5.88333,0.51666 -8.25,-2.25l-2.55,-4.55l-0.7,2.45c-0.7,2 -1.56666,3.85 -2.6,5.55c-3.36667,5.46667 -7.93333,8.53333 -13.7,9.2c-5.86667,0.66666 -10.55,-1.23333 -14.05,-5.7c-1.1,-1.4 -2.03334,-2.96667 -2.8,-4.7l-0.75,-2.2l-0.65,2.55c-0.66666,1.93333 -1.48333,3.55 -2.45,4.85c-1.5,1.96667 -3.56667,3.08334 -6.2,3.35c-2.4,0.26666 -4.63333,-0.2 -6.7,-1.4c-6.46667,-3.73334 -10.16666,-10.15 -11.1,-19.25c-0.23334,-2.13333 -0.15,-4.21667 0.25,-6.25l0.65,-2.45l-1.95,1.75c-1.63333,1.33334 -3.26667,2.4 -4.9,3.2c-5.26666,2.5 -9.65,1.78333 -13.15,-2.15c-4.03333,-4.5 -5.63334,-10.76666 -4.8,-18.8c0.23334,-2.13333 0.8,-4.6 1.7,-7.4l1.1,-3l-3.55,1.9c-2.73334,0.73334 -5.01666,-0.23334 -6.85,-2.9c-1.13333,-1.63333 -1.45,-4.4 -0.95,-8.3c0.5,-4.03333 1.81667,-8.4 3.95,-13.1c5.26666,-11.76666 13.2,-21.1 23.8,-28c-6.23334,0.66666 -8.8,-0.83334 -7.7,-4.5c1.03333,-3.56667 4.4,-6.66666 10.1,-9.3c4.5,-2.06667 10.18334,-1.95 17.05,0.35c2.13333,0.7 4.26667,1.58334 6.4,2.65l2.5,1.4c-1.16666,-2.73334 -1.88334,-5.68333 -2.15,-8.85c-0.5,-6 0.76666,-9.05 3.8,-9.15c2.66666,-0.06667 5.76667,2.41667 9.3,7.45c1.76666,2.5 3.26666,5.01666 4.5,7.55z" fill="none" fill-rule="nonzero" stroke="#d77fc9" stroke-width="3" stroke-linecap="round" stroke-linejoin="miter-clip"/><path d="M267.95394,178.03442l4.5,0.15c3.26666,-0.36667 5.56667,-1.65 6.9,-3.85c2.13333,-3.53333 1.63333,-8.06666 -1.5,-13.6c16.06667,12.6 23.46667,20.26666 22.2,23c-1.26666,2.73334 -5.76666,1.66666 -13.5,-3.2c2.26666,2.5 3.6,4.88334 4,7.15c0.4,2.3 -0.1,4.28333 -1.5,5.95l2.35,2.65c1.86667,2.2 3.48334,4.33334 4.85,6.4c4.33333,6.63333 5.43334,11.51667 3.3,14.65c-2.06667,3.03333 -5.5,2.8 -10.3,-0.7c-1.5,-1.1 -3.05,-2.45 -4.65,-4.05l-1.95,-2.1l0.1,2.25c-0.03334,1.83334 -0.21667,3.55 -0.55,5.15c-1.13333,5.16666 -3.75,8.28334 -7.85,9.35c-4.06667,1.1 -7.71666,0.31666 -10.95,-2.35c-1.03334,-0.83334 -1.95,-1.81667 -2.75,-2.95l-0.9,-1.4l0.7,2.8c0.43333,2.23334 0.61667,4.33333 0.55,6.3c-0.16667,6.33334 -2.81667,10.1 -7.95,11.3c-5.13333,1.2 -10.15,-1.05 -15.05,-6.75c-1.53333,-1.8 -2.96667,-3.83334 -4.3,-6.1l-1.55,-2.85l-0.35,2.2c-0.33334,1.7 -0.8,3.23333 -1.4,4.6c-1.9,4.36667 -4.75,6.06667 -8.55,5.1c-3.8,-0.96667 -6.3,-4 -7.5,-9.1c-0.4,-1.6 -0.63334,-3.31667 -0.7,-5.15v-2.25c-2.13333,-1.06667 -3.73333,-2.46666 -4.8,-4.2c-1.06667,-1.73334 -1.63334,-3.83334 -1.7,-6.3l-3.1,3.05c-2.43333,2.1 -4.5,3.38333 -6.2,3.85c-2.63333,0.7 -5.11667,-0.01667 -7.45,-2.15c4.9,-0.16666 8.63334,-2.91666 11.2,-8.25c0.8,-1.66666 1.43333,-3.5 1.9,-5.5l0.45,-2.5c1.4,2.4 3.4,3.9 6,4.5c2.6,0.6 5.26666,-0.76666 8,-4.1c-0.8,2.9 -1.13333,5.93334 -1,9.1c0.33334,6.33334 2.93333,10.23334 7.8,11.7c4.36667,1.3 6.9,-0.58334 7.6,-5.65c0.2,-1.6 0.21666,-3.41666 0.05,-5.45l-0.35,-2.6c1.4,1.23334 3.16667,2.35 5.3,3.35c4.23334,2 8.13333,2.36666 11.7,1.1c3.6,-1.23334 5.3,-4.13334 5.1,-8.7c-0.1,-2.26666 -0.56666,-4.41666 -1.4,-6.45c1.83334,2.8 3.96666,5.3 6.4,7.5c4.9,4.36667 8.86667,5.06667 11.9,2.1c3.2,-3.1 3.5,-6.78333 0.9,-11.05c-0.8,-1.33334 -1.83334,-2.63334 -3.1,-3.9l-1.7,-1.55c4.06667,0.03333 6.3,-1.53333 6.7,-4.7c0.26666,-2.26666 -1.7,-4.2 -5.9,-5.8" fill-opacity="0.10196" fill="#b83085" fill-rule="evenodd" stroke="none" stroke-width="1" stroke-linecap="butt" stroke-linejoin="miter"/></g></g></svg>
